<svg xmlns="http://www.w3.org/2000/svg" xmlns:xlink="http://www.w3.org/1999/xlink" width="58" height="58" viewBox="0 0 58 58">
  <defs>
    <linearGradient id="linear-gradient" x1="0.5" x2="0.5" y2="1" gradientUnits="objectBoundingBox">
      <stop offset="0" stop-color="#2b8dff"/>
      <stop offset="1" stop-color="#98c0ff"/>
    </linearGradient>
  </defs>
  <g id="Group_5551" data-name="Group 5551" transform="translate(-68 -19)">
    <rect id="Rectangle" width="58" height="58" rx="10" transform="translate(68 19)" fill="#f2f9ff"/>
    <g id="history_3_" data-name="history (3)" transform="translate(82 33)">
      <path id="Path_35182" data-name="Path 35182" d="M16.172,8.086v6.429l4.266,4.266a1.172,1.172,0,0,1-1.657,1.657l-4.609-4.609A1.172,1.172,0,0,1,13.828,15V8.086a1.172,1.172,0,0,1,2.344,0ZM19.609,0H10.391A10.355,10.355,0,0,0,3.577,2.548V1.172a1.172,1.172,0,0,0-2.344,0V5.781A1.175,1.175,0,0,0,2.405,6.953H7.015a1.172,1.172,0,0,0,0-2.344H4.8a8.074,8.074,0,0,1,5.593-2.266h9.219a8.056,8.056,0,0,1,8.047,8.047v9.219a8.056,8.056,0,0,1-8.047,8.047H10.391a8.056,8.056,0,0,1-8.047-8.047V15A1.172,1.172,0,0,0,0,15v4.609A10.4,10.4,0,0,0,10.391,30h9.219A10.4,10.4,0,0,0,30,19.609V10.391A10.4,10.4,0,0,0,19.609,0Z" stroke="#f2f9ff" stroke-width="0.5" fill="url(#linear-gradient)"/>
    </g>
  </g>
</svg>
