<svg id="trending" xmlns="http://www.w3.org/2000/svg" width="12.601" height="15.942" viewBox="0 0 12.601 15.942">
  <path id="Path_35119" data-name="Path 35119" d="M10.719,7.309a.557.557,0,0,0-.6-.223.507.507,0,0,0-.394.482,1.194,1.194,0,0,1-2.382,0V4.5a.5.5,0,0,0-.332-.462.569.569,0,0,0-.586.108A15.509,15.509,0,0,0,3.472,7.289a15.84,15.84,0,0,0-2.033,2.961A9.258,9.258,0,0,0,.5,14.087a6.1,6.1,0,0,0,6.3,5.855,6.1,6.1,0,0,0,6.3-5.855A12.713,12.713,0,0,0,10.719,7.309ZM6.8,18.942a5.056,5.056,0,0,1-5.225-4.855c0-2.635,1.511-4.457,2.779-6.227A18.138,18.138,0,0,1,6.263,5.8V7.567A2.193,2.193,0,0,0,8.529,9.674a2.321,2.321,0,0,0,1.852-.893,10.876,10.876,0,0,1,1.644,5.306A5.056,5.056,0,0,1,6.8,18.942Zm0,0" transform="translate(-0.5 -4)" fill="#7b829c"/>
  <path id="Path_35120" data-name="Path 35120" d="M73.421,253.168H71.116a.5.5,0,1,0,0,1h1.006l-2.3,2.136-1.249-1.161a.567.567,0,0,0-.761,0l-1.223,1.136a.475.475,0,0,0,0,.707.568.568,0,0,0,.761,0l.842-.782,1.249,1.161a.567.567,0,0,0,.761,0l2.679-2.489v.935a.539.539,0,0,0,1.076,0v-2.142A.52.52,0,0,0,73.421,253.168Zm0,0" transform="translate(-64.068 -245.853)" fill="#7b829c"/>
</svg>
