<svg xmlns="http://www.w3.org/2000/svg" width="13.713" height="13.713" viewBox="0 0 13.713 13.713">
  <g id="collection" transform="translate(0.1 0.1)">
    <path id="Path_35114" data-name="Path 35114" d="M11.05,11.05h1.127v4.508H11.05Z" transform="translate(-4.854 -4.853)" fill="#232e5a" stroke="#fff" stroke-width="0.2"/>
    <path id="Path_35115" data-name="Path 35115" d="M14.86,12.95h1.127V15.2H14.86Z" transform="translate(-6.416 -5.632)" fill="#232e5a" stroke="#fff" stroke-width="0.2"/>
    <path id="Path_35116" data-name="Path 35116" d="M7.23,12.95H8.357V15.2H7.23Z" transform="translate(-3.288 -5.632)" fill="#232e5a" stroke="#fff" stroke-width="0.2"/>
    <path id="Union_18" data-name="Union 18" d="M1.688,13.513A1.687,1.687,0,0,1,0,11.826V0H5.866l1.1,1.122h6.544v10.7a1.687,1.687,0,0,1-1.688,1.688Zm-.566-1.687a.59.59,0,0,0,.59.59H11.825a.59.59,0,0,0,.59-.59V4.5H1.121Zm11.294-8.45V2.249h-5.9L5.393,1.122H1.121V3.375Z" fill="#232e5a" stroke="#fff" stroke-width="0.2"/>
  </g>
</svg>
