<svg xmlns="http://www.w3.org/2000/svg" xmlns:xlink="http://www.w3.org/1999/xlink" width="58" height="58" viewBox="0 0 58 58">
  <defs>
    <linearGradient id="linear-gradient" x1="0.5" x2="0.5" y2="1" gradientUnits="objectBoundingBox">
      <stop offset="0" stop-color="#2b8dff"/>
      <stop offset="1" stop-color="#98c0ff"/>
    </linearGradient>
  </defs>
  <g id="Group_5550" data-name="Group 5550" transform="translate(-68 -19)">
    <rect id="Rectangle" width="58" height="58" rx="10" transform="translate(68 19)" fill="#f2f9ff"/>
    <g id="equalizer" transform="translate(78.146 19.038)">
      <path id="Union_20" data-name="Union 20" d="M6949.479,4351.682v-5.324a5.163,5.163,0,0,1,0-10v-14.112a1.28,1.28,0,1,1,2.56,0v14.112a5.162,5.162,0,0,1,0,10v5.324a1.28,1.28,0,0,1-2.56,0Zm-1.323-10.326a2.6,2.6,0,1,0,2.6-2.6A2.606,2.606,0,0,0,6948.156,4341.356Zm-12.049,10.326v-14.114a5.163,5.163,0,0,1,0-10v-5.323a1.281,1.281,0,1,1,2.561,0v5.323a5.163,5.163,0,0,1,0,10v14.114a1.281,1.281,0,0,1-2.561,0Zm-1.321-19.115a2.6,2.6,0,1,0,2.6-2.6A2.606,2.606,0,0,0,6934.786,4332.567Zm-12.049,19.115v-5.324a5.163,5.163,0,0,1,0-10v-14.112a1.281,1.281,0,1,1,2.561,0v14.113a5.163,5.163,0,0,1,0,10v5.325a1.281,1.281,0,0,1-2.561,0Zm-1.323-10.326a2.6,2.6,0,1,0,2.6-2.6A2.606,2.606,0,0,0,6921.414,4341.356Z" transform="translate(-6918.854 -4308)" stroke="#f2f9ff" stroke-width="0.5" fill="url(#linear-gradient)"/>
    </g>
  </g>
</svg>
