<svg xmlns="http://www.w3.org/2000/svg" xmlns:xlink="http://www.w3.org/1999/xlink" width="58" height="58" viewBox="0 0 58 58">
  <defs>
    <linearGradient id="linear-gradient" x1="0.5" x2="0.5" y2="1" gradientUnits="objectBoundingBox">
      <stop offset="0" stop-color="#2b8dff"/>
      <stop offset="1" stop-color="#98c0ff"/>
    </linearGradient>
  </defs>
  <g id="Group_5549" data-name="Group 5549" transform="translate(-68 -19)">
    <rect id="Rectangle" width="58" height="58" rx="10" transform="translate(68 19)" fill="#f2f9ff"/>
    <path id="withdraw" d="M33.742,10.7a1.372,1.372,0,0,0,1.372-1.372V5.486A5.493,5.493,0,0,0,29.627,0H5.486A5.493,5.493,0,0,0,0,5.486V21.809c0,.023,0,.046,0,.069a5.492,5.492,0,0,0,5.483,5.348c.023,0,.046,0,.069,0v2.4a5.493,5.493,0,0,0,5.486,5.486h13.1a5.493,5.493,0,0,0,5.486-5.486v-2.4a5.493,5.493,0,0,0,5.486-5.486V16.185a1.372,1.372,0,1,0-2.743,0v.738a5.452,5.452,0,0,0-2.743-.738H18.784V14.813H19.2A3.359,3.359,0,0,0,21.47,8.975,3.324,3.324,0,0,0,18.784,4.2V2.743H29.627A2.746,2.746,0,0,1,32.37,5.486V9.327A1.372,1.372,0,0,0,33.742,10.7ZM5.486,24.483A2.746,2.746,0,0,1,2.743,21.74v-.069a2.746,2.746,0,0,1,2.743-2.743h.069v5.559C5.532,24.486,5.509,24.483,5.486,24.483ZM24.14,32.37h-13.1A2.746,2.746,0,0,1,8.3,29.627v-10.7h2.587a6.57,6.57,0,0,0,6.68,5.555,6.569,6.569,0,0,0,6.68-5.555h2.638v10.7A2.746,2.746,0,0,1,24.14,32.37ZM21.465,18.928a3.89,3.89,0,0,1-3.9,2.812,3.891,3.891,0,0,1-3.9-2.812Zm10.9,2.743v.069a2.746,2.746,0,0,1-2.743,2.743V18.928A2.746,2.746,0,0,1,32.37,21.671ZM19.2,12.07H17.145V10.836h1.218c.039,0,.079.006.119.006.065,0,.129,0,.193-.006H19.2a.617.617,0,1,1,0,1.234Zm-.137-4.554a.583.583,0,0,1-.5.577H17.145V6.933h1.337A.584.584,0,0,1,19.065,7.516ZM16.041,4.19H14.4a1.372,1.372,0,0,0,0,2.743V12.07a1.372,1.372,0,0,0,0,2.743h1.639v1.372H5.486a5.452,5.452,0,0,0-2.743.738V5.486A2.746,2.746,0,0,1,5.486,2.743H16.041ZM19,28.6a1.372,1.372,0,1,1-1.372-1.372A1.372,1.372,0,0,1,19,28.6Zm0,0" transform="translate(79.443 30.443)" stroke="#f2f9ff" stroke-width="1" fill="url(#linear-gradient)"/>
  </g>
</svg>
