<svg xmlns="http://www.w3.org/2000/svg" width="12.061" height="15.355" viewBox="0 0 12.061 15.355">
  <g id="idea_5_" data-name="idea (5)" transform="translate(0.15 0.15)">
    <g id="Group_5416" data-name="Group 5416">
      <g id="Group_5415" data-name="Group 5415">
        <path id="Path_35111" data-name="Path 35111" d="M84.223,0a5.883,5.883,0,0,0-2.8,11.056v.323a.613.613,0,0,0,.613.613h4.349A.613.613,0,0,0,87,11.38v-.321A5.877,5.877,0,0,0,84.223,0Zm1.911,10.121a.612.612,0,0,0-.359.557v.088H82.65v-.088a.613.613,0,0,0-.356-.556,4.666,4.666,0,1,1,3.839,0Z" transform="translate(-78.342)" fill="#7b829c" stroke="#fff" stroke-width="0.3"/>
      </g>
    </g>
    <g id="Group_5418" data-name="Group 5418" transform="translate(3.573 12.399)">
      <g id="Group_5417" data-name="Group 5417">
        <path id="Path_35112" data-name="Path 35112" d="M190.3,413.918h-3.389a.613.613,0,1,0,0,1.225H190.3a.613.613,0,1,0,0-1.225Z" transform="translate(-186.294 -413.918)" fill="#7b829c" stroke="#fff" stroke-width="0.3"/>
      </g>
    </g>
    <g id="Group_5420" data-name="Group 5420" transform="translate(4.553 13.83)">
      <g id="Group_5419" data-name="Group 5419">
        <path id="Path_35113" data-name="Path 35113" d="M217.946,474.988h-1.429a.613.613,0,0,0,0,1.225h1.429a.613.613,0,1,0,0-1.225Z" transform="translate(-215.904 -474.988)" fill="#7b829c" stroke="#fff" stroke-width="0.3"/>
      </g>
    </g>
  </g>
</svg>
